<?xml version="1.0" encoding="UTF-8"?>
<svg id="Layer_2" data-name="Layer 2" xmlns="http://www.w3.org/2000/svg" viewBox="0 0 389.87 80.52">
  <g id="Layer_3" data-name="Layer 3">
    <g>
      <path d="m24.64,78.76L0,1.76h26.73l19.91,65.01h-13.42L54.34,1.76h23.87l19.69,65.01h-12.87L105.82,1.76h24.64l-24.64,77h-27.83l-16.06-53.24h7.48l-16.94,53.24h-27.83Z" style="fill: #f3bae5; stroke-width: 0px;"/>
      <path d="m171.61,80.52c-6.23,0-12.01-.99-17.33-2.97-5.32-1.98-9.92-4.79-13.8-8.42-3.89-3.63-6.91-7.9-9.08-12.82-2.16-4.91-3.25-10.27-3.25-16.06s1.08-11.24,3.25-16.12c2.16-4.88,5.19-9.13,9.08-12.76,3.89-3.63,8.49-6.43,13.8-8.42,5.32-1.98,11.09-2.97,17.33-2.97s12.1.99,17.38,2.97c5.28,1.98,9.86,4.79,13.75,8.42,3.89,3.63,6.91,7.88,9.08,12.76,2.16,4.88,3.25,10.25,3.25,16.12s-1.08,11.15-3.25,16.06c-2.16,4.91-5.19,9.19-9.08,12.82-3.89,3.63-8.47,6.43-13.75,8.42-5.28,1.98-11.07,2.97-17.38,2.97Zm0-21.01c2.42,0,4.67-.44,6.76-1.32,2.09-.88,3.92-2.14,5.5-3.79,1.58-1.65,2.81-3.67,3.69-6.05.88-2.38,1.32-5.08,1.32-8.08s-.44-5.7-1.32-8.08c-.88-2.38-2.11-4.4-3.69-6.05-1.58-1.65-3.41-2.92-5.5-3.79-2.09-.88-4.34-1.32-6.76-1.32s-4.67.44-6.76,1.32-3.92,2.14-5.5,3.79c-1.58,1.65-2.81,3.67-3.69,6.05-.88,2.38-1.32,5.08-1.32,8.08s.44,5.7,1.32,8.08c.88,2.38,2.11,4.4,3.69,6.05,1.58,1.65,3.41,2.92,5.5,3.79s4.34,1.32,6.76,1.32Z" style="fill: #f3bae5; stroke-width: 0px;"/>
      <path d="m220.31,78.76V1.76h37.07c7.19,0,13.4,1.17,18.64,3.52,5.24,2.35,9.29,5.7,12.16,10.07,2.86,4.36,4.29,9.51,4.29,15.46s-1.43,11.05-4.29,15.34-6.91,7.57-12.16,9.85c-5.24,2.27-11.46,3.41-18.64,3.41h-22.66l11.55-10.67v30.03h-25.96Zm25.96-27.17l-11.55-11.77h21.01c3.59,0,6.25-.81,7.98-2.42,1.72-1.61,2.58-3.81,2.58-6.6s-.86-4.99-2.58-6.6c-1.72-1.61-4.38-2.42-7.98-2.42h-21.01l11.55-11.77v41.58Zm20.13,27.17l-18.92-28.05h27.5l19.14,28.05h-27.72Z" style="fill: #f3bae5; stroke-width: 0px;"/>
      <path d="m297.47,78.76V1.76h21.34l30.8,50.27h-11.22L368.31,1.76h21.34l.22,77h-23.65l-.22-41.36h3.74l-20.46,34.43h-11.44l-21.34-34.43h4.62v41.36h-23.65Z" style="fill: #f3bae5; stroke-width: 0px;"/>
    </g>
  </g>
</svg>