<?xml version="1.0" encoding="UTF-8"?>
<svg id="Layer_2" data-name="Layer 2" xmlns="http://www.w3.org/2000/svg" viewBox="0 0 340.12 184.01">
  <g id="Layer_1-2" data-name="Layer 1">
    <path d="m292.69,0c9.55.26,21.4,2.7,32.28,8.65,13.42,7.35,18.77,23.83,12.62,38.01-5.92,13.67-22.14,21.67-36.12,16.17-12.05-4.74-20.99-1.09-29.53,6.74-2.33,2.14-4.49,4.46-6.74,6.69-4.08,4.05-7.01,8.14-6.42,14.71.34,3.86-1.85,8.45-4.11,11.92-5.27,8.08-10.85,16.05-17.17,23.32-3.2,3.69-7.94,6.79-12.58,8.24-3.85,1.21-6.35,3.04-8.63,5.94-12.78,16.27-27.94,29.35-47.71,36.62-32.69,12.03-64.12,8-93.94-8.34-13.77-7.54-26.08-17.76-39.13-26.65-2.54-1.73-5.25-3.55-8.15-4.37C10.49,132.91-1.32,116.66.12,99.78c1.59-18.72,15.18-32.34,34.33-34.39,16.2-1.74,32.53,9.62,37.86,25.93.92,2.8,2.83,5.69,5.08,7.59,13.48,11.36,27.83,21.4,45.74,24.32,24.17,3.94,36.9-7.37,47.76-22,.75-1,.82-2.83.6-4.18-.94-5.76.37-10.99,3.67-15.63,5.88-8.29,11.53-16.81,18.18-24.45,3.17-3.64,8.4-5.49,12.71-8.14,2.56-1.58,5.71-2.62,7.61-4.78,13.2-14.99,27.31-28.76,45.79-37.22,9.68-4.43,19.82-6.78,33.26-6.83Zm-86.33,130.29c-7.24-5.31-14.27-10.07-20.81-15.43-3.77-3.09-5.84-2.6-8.77,1.06-12.65,15.8-29.31,23.18-49.48,22-13.05-.76-24.93-5.6-36.14-12.09-15.55-9.01-28.88-20.78-41.42-33.53-7.41-7.53-17.38-8.12-23.92-1.58-6.7,6.69-6.43,16.59,1.17,23.95,8,7.76,16.04,15.56,24.7,22.55,21.18,17.11,44.42,30.31,72.27,32.26,34.3,2.4,61.5-11.02,82.4-39.2Zm43.79-57.76c5.53-5.64,10.2-11.14,15.6-15.78,11.42-9.8,24.09-13.3,38.95-7.6,3.82,1.46,9.34.63,13.32-.99,6.08-2.47,8.43-8.2,8.01-14.79-.45-7.14-4.53-11.59-10.9-14.17-25.96-10.5-49.01-4.42-69.71,12.89-7.56,6.33-14.29,13.66-21.84,20.97,9.43,6.91,17.72,12.99,26.56,19.46Zm-4.27,16.93c-1.56-2.09-2.72-4.58-4.64-6.06-8.31-6.39-16.81-12.53-25.31-18.66-5.24-3.78-8.98-3.2-12.8,1.93-5.27,7.07-10.47,14.19-15.62,21.36-3.63,5.05-3.11,8.74,1.81,12.42,8.39,6.28,16.84,12.5,25.34,18.63,4.92,3.55,8.88,2.94,12.48-1.86,5.39-7.19,10.69-14.44,15.91-21.76,1.11-1.55,1.67-3.49,2.83-5.99Z" style="fill: #f3bae5; stroke-width: 0px;"/>
  </g>
</svg>